<?xml version="1.0" encoding="utf-8"?>
<!-- Generator: Adobe Illustrator 21.1.0, SVG Export Plug-In . SVG Version: 6.00 Build 0)  -->
<svg version="1.1" id="Layer_1" xmlns="http://www.w3.org/2000/svg" xmlns:xlink="http://www.w3.org/1999/xlink" x="0px" y="0px"
	 viewBox="0 0 64 64" style="enable-background:new 0 0 64 64;" xml:space="preserve">
<g>
	<path d="M54,52H5.3l7-7V16.7c0-2.6,2.1-4.7,4.7-4.7h37c2.6,0,4.7,2.1,4.7,4.7v30.5C58.7,49.8,56.6,52,54,52z M10.2,50H54
		c1.5,0,2.7-1.2,2.7-2.7V16.7c0-1.5-1.2-2.7-2.7-2.7H17c-1.5,0-2.7,1.2-2.7,2.7v29.1L10.2,50z"/>
	<g>
		<path d="M30.5,41.3c-2,1-2.9,0.1-2.1-1.9l1.4-3.7c0.8-2.1,0.8-5.4,0-7.5l-1.4-3.7c-0.8-2.1,0.2-2.9,2.1-1.9l14.7,7.5
			c2,1,2,2.6,0,3.6L30.5,41.3z"/>
	</g>
</g>
</svg>
