<?xml version="1.0" encoding="utf-8"?>
<!-- Generator: Adobe Illustrator 21.1.0, SVG Export Plug-In . SVG Version: 6.00 Build 0)  -->
<svg version="1.1" id="Layer_1" xmlns="http://www.w3.org/2000/svg" xmlns:xlink="http://www.w3.org/1999/xlink" x="0px" y="0px"
	 viewBox="0 0 64 64" style="enable-background:new 0 0 64 64;" xml:space="preserve">
<g>
	<path d="M18,40.7c-8.3,0-10.5,5.1-5.1,11.3c0,0,6.3,7.1,19.1,7.1S51.1,52,51.1,52c5.5-6.2,3.2-11.3-5.1-11.3H18z"/>
</g>
<path d="M45.3,12.1H34.2V7.2C34.2,6,33.2,5,32,5s-2.2,1-2.2,2.2v4.9H18.7c-1.9,0-3.5,1.6-3.5,3.5v16.8c0,1.9,1.6,3.5,3.5,3.5h26.6
	c1.9,0,3.5-1.6,3.5-3.5V15.6C48.8,13.7,47.2,12.1,45.3,12.1z M24.9,23.6c-1,0-1.8-0.8-1.8-1.8c0-1,0.8-1.8,1.8-1.8s1.8,0.8,1.8,1.8
	C26.7,22.8,25.9,23.6,24.9,23.6z M40,23.6c-1,0-1.8-0.8-1.8-1.8c0-1,0.8-1.8,1.8-1.8c1,0,1.8,0.8,1.8,1.8
	C41.7,22.8,40.9,23.6,40,23.6z"/>
</svg>
